<svg id="svg" version="1.1" xmlns="http://www.w3.org/2000/svg" xmlns:xlink="http://www.w3.org/1999/xlink" width="400" height="400" viewBox="0, 0, 400,400"><g id="svgg"><path id="path0" d="M73.200 0.606 C 73.200 1.476,71.159 2.594,68.498 3.180 C 67.234 3.458,65.881 3.968,65.491 4.313 C 65.102 4.658,64.009 5.403,63.064 5.970 C 60.844 7.301,57.868 10.557,56.803 12.820 C 56.342 13.799,55.683 15.117,55.338 15.748 C 53.593 18.940,53.625 15.470,53.625 200.000 C 53.625 384.530,53.593 381.060,55.338 384.252 C 55.683 384.883,56.342 386.201,56.803 387.180 C 57.868 389.443,60.844 392.699,63.064 394.030 C 64.009 394.597,65.102 395.342,65.491 395.687 C 65.881 396.032,67.234 396.542,68.498 396.820 C 71.159 397.406,73.200 398.524,73.200 399.394 C 73.200 399.934,87.009 400.000,200.000 400.000 C 312.991 400.000,326.800 399.934,326.800 399.394 C 326.800 398.524,328.841 397.406,331.502 396.820 C 332.766 396.542,334.119 396.032,334.509 395.687 C 334.898 395.342,335.998 394.597,336.951 394.030 C 338.935 392.851,342.585 388.935,343.001 387.539 C 343.154 387.023,343.727 385.939,344.273 385.131 C 346.469 381.882,346.392 387.606,346.396 225.949 C 346.400 91.831,346.339 77.151,345.773 75.796 C 345.428 74.970,344.573 73.705,343.873 72.984 C 342.156 71.216,338.980 67.929,338.329 67.246 C 338.038 66.941,336.450 65.243,334.800 63.473 C 333.150 61.702,330.805 59.252,329.589 58.027 C 328.374 56.802,326.957 55.202,326.442 54.472 C 325.927 53.741,324.601 52.301,323.495 51.272 C 322.390 50.242,321.239 48.815,320.937 48.100 C 320.636 47.385,320.169 46.800,319.899 46.800 C 319.392 46.800,316.000 43.263,316.000 42.734 C 316.000 42.570,314.155 40.562,311.900 38.273 C 309.645 35.985,307.494 33.772,307.120 33.356 C 306.746 32.940,306.253 32.420,306.024 32.200 C 305.795 31.980,304.931 31.061,304.104 30.158 C 303.277 29.255,301.525 27.365,300.212 25.958 C 298.898 24.551,296.853 22.320,295.667 21.000 C 294.481 19.680,292.316 17.336,290.855 15.792 C 286.891 11.600,283.865 8.081,283.303 7.009 C 283.028 6.484,282.441 5.940,281.997 5.799 C 281.554 5.658,280.919 5.016,280.585 4.372 C 280.252 3.727,279.817 3.200,279.618 3.200 C 278.920 3.200,278.000 1.933,278.000 0.971 L 278.000 0.000 175.600 0.000 C 84.403 0.000,73.200 0.066,73.200 0.606 M263.440 20.560 L 264.800 21.920 264.800 51.740 C 264.800 84.742,264.821 85.061,267.028 86.364 C 267.783 86.809,268.400 87.341,268.400 87.547 C 268.400 88.670,271.525 88.800,298.431 88.800 L 325.942 88.800 326.771 89.854 L 327.600 90.908 327.594 234.354 C 327.591 313.249,327.456 378.005,327.294 378.255 C 327.132 378.505,326.155 379.180,325.123 379.755 L 323.246 380.800 200.000 380.800 L 76.754 380.800 74.877 379.755 C 73.845 379.180,72.868 378.505,72.706 378.255 C 72.322 377.660,72.322 22.339,72.706 21.747 C 72.868 21.498,73.810 20.830,74.800 20.264 L 76.600 19.234 169.340 19.217 L 262.080 19.200 263.440 20.560 M286.783 38.564 C 287.136 39.204,287.721 39.834,288.083 39.964 C 288.444 40.094,289.683 41.280,290.836 42.600 C 291.989 43.920,293.397 45.468,293.966 46.041 C 296.727 48.821,305.424 58.145,306.163 59.117 C 306.623 59.723,308.035 61.294,309.300 62.608 C 310.565 63.922,311.600 65.219,311.600 65.489 C 311.600 65.760,312.022 66.258,312.538 66.596 C 314.341 67.778,314.580 69.848,313.034 70.894 C 311.748 71.764,284.865 71.218,283.829 70.300 L 282.814 69.400 282.763 53.827 C 282.715 39.077,282.752 38.225,283.456 37.710 C 284.601 36.872,286.056 37.246,286.783 38.564 M106.217 111.679 C 102.596 113.779,101.899 119.005,104.847 121.953 L 106.494 123.600 196.347 123.572 C 245.766 123.556,286.509 123.421,286.887 123.271 C 289.573 122.206,291.484 116.376,289.756 114.521 C 289.181 113.904,288.566 113.021,288.387 112.557 C 288.166 111.983,287.577 111.635,286.532 111.462 C 283.576 110.973,107.067 111.186,106.217 111.679 M104.847 164.447 C 102.370 166.924,102.348 171.148,104.800 173.600 L 106.400 175.200 195.700 175.196 C 288.928 175.191,287.857 175.207,288.397 173.843 C 288.581 173.379,289.196 172.380,289.765 171.622 C 291.161 169.764,291.071 168.668,289.300 165.948 C 287.069 162.521,295.347 162.800,195.987 162.800 L 106.494 162.800 104.847 164.447 M107.400 213.609 C 103.334 214.717,103.280 214.788,103.280 219.000 C 103.280 222.619,103.487 222.971,106.557 224.567 L 109.314 226.000 196.474 226.000 L 283.633 226.000 286.122 224.837 C 289.649 223.188,292.292 218.569,290.384 217.390 C 290.155 217.249,289.538 216.453,289.013 215.621 C 288.265 214.436,287.670 214.012,286.253 213.655 C 284.109 213.115,109.377 213.070,107.400 213.609 M106.400 265.037 C 103.562 265.791,103.199 266.329,103.205 269.776 C 103.213 273.831,103.430 274.345,105.557 275.339 L 107.400 276.200 194.400 276.322 C 292.089 276.459,287.968 276.575,289.182 273.644 C 289.452 272.991,289.927 272.360,290.237 272.241 C 291.126 271.900,290.960 269.069,290.000 268.200 C 289.560 267.802,289.200 267.262,289.200 267.000 C 289.200 266.254,287.952 265.381,286.154 264.869 C 283.431 264.093,109.340 264.256,106.400 265.037 " stroke="none" fill="#0c0c0c" fill-rule="evenodd"></path><path id="path1" d="M0.000 200.000 L 0.000 400.000 33.629 400.000 C 64.593 400.000,67.248 399.948,67.129 399.344 C 67.055 398.965,66.277 398.474,65.293 398.184 C 64.354 397.907,62.868 397.032,61.992 396.240 C 61.115 395.448,60.228 394.800,60.021 394.800 C 59.815 394.800,59.326 394.260,58.936 393.599 C 58.546 392.939,57.925 392.303,57.556 392.186 C 57.188 392.069,56.671 391.454,56.408 390.820 C 56.145 390.185,55.414 389.088,54.783 388.381 C 54.053 387.564,53.467 386.287,53.175 384.878 C 52.921 383.658,52.329 381.927,51.857 381.030 L 51.000 379.400 51.000 200.000 L 51.000 20.600 51.857 18.970 C 52.329 18.073,52.921 16.342,53.175 15.122 C 53.467 13.713,54.053 12.436,54.783 11.619 C 55.414 10.912,56.145 9.815,56.408 9.180 C 56.671 8.546,57.188 7.931,57.556 7.814 C 57.925 7.697,58.546 7.061,58.936 6.401 C 59.326 5.740,59.815 5.200,60.021 5.200 C 60.228 5.200,61.115 4.552,61.992 3.760 C 62.868 2.968,64.354 2.093,65.293 1.816 C 66.277 1.526,67.055 1.035,67.129 0.656 C 67.248 0.052,64.593 -0.000,33.629 -0.000 L 0.000 0.000 0.000 200.000 M280.400 0.800 C 280.400 1.240,280.586 1.600,280.813 1.600 C 281.041 1.600,281.599 2.230,282.053 3.000 C 282.507 3.770,283.127 4.400,283.430 4.400 C 283.733 4.400,284.300 4.895,284.689 5.500 C 285.078 6.105,285.791 6.920,286.274 7.310 C 286.757 7.701,287.269 8.386,287.411 8.833 C 287.552 9.280,288.106 9.812,288.641 10.016 C 289.177 10.219,289.783 10.828,289.988 11.369 C 290.194 11.909,290.739 12.553,291.200 12.800 C 291.661 13.047,292.206 13.690,292.411 14.229 C 292.616 14.769,293.238 15.417,293.792 15.669 C 294.346 15.922,294.800 16.288,294.800 16.482 C 294.800 16.677,295.437 17.503,296.215 18.318 C 296.993 19.133,298.748 20.971,300.115 22.402 C 301.482 23.833,304.841 27.523,307.579 30.602 C 310.318 33.681,313.063 36.677,313.679 37.260 C 314.296 37.844,314.800 38.507,314.800 38.734 C 314.800 38.960,315.176 39.266,315.637 39.412 C 316.097 39.558,316.729 40.290,317.042 41.039 C 317.355 41.787,317.874 42.400,318.195 42.400 C 318.516 42.400,319.063 42.948,319.409 43.617 C 319.755 44.287,320.471 45.032,320.999 45.272 C 321.528 45.513,322.134 46.208,322.346 46.817 C 322.558 47.426,323.118 48.047,323.589 48.196 C 324.060 48.346,324.612 48.906,324.816 49.441 C 325.019 49.977,325.623 50.581,326.159 50.784 C 326.694 50.988,327.239 51.479,327.370 51.877 C 327.501 52.275,328.489 53.500,329.565 54.600 C 330.641 55.700,331.764 56.856,332.061 57.168 C 332.357 57.480,333.770 58.920,335.200 60.368 C 336.630 61.816,338.143 63.540,338.562 64.200 C 338.981 64.860,340.377 66.361,341.663 67.535 C 342.950 68.708,344.110 70.097,344.241 70.620 C 344.372 71.143,344.806 71.675,345.204 71.801 C 345.603 71.928,346.620 72.875,347.465 73.905 L 349.000 75.779 349.000 227.789 L 349.000 379.800 348.161 381.400 C 347.700 382.280,347.101 383.928,346.831 385.063 C 346.554 386.221,345.841 387.682,345.204 388.396 C 344.580 389.094,343.855 390.185,343.592 390.820 C 343.329 391.454,342.812 392.069,342.444 392.186 C 342.075 392.303,341.454 392.939,341.064 393.599 C 340.674 394.260,340.185 394.800,339.979 394.800 C 339.772 394.800,338.885 395.448,338.008 396.240 C 337.132 397.032,335.646 397.907,334.707 398.184 C 333.723 398.474,332.945 398.965,332.871 399.344 C 332.752 399.948,335.407 400.000,366.371 400.000 L 400.000 400.000 400.000 200.000 L 400.000 0.000 340.200 0.000 C 280.667 0.000,280.400 0.004,280.400 0.800 M75.400 22.351 L 74.200 22.608 74.100 199.916 C 74.004 368.503,74.034 377.239,74.700 377.512 C 75.615 377.888,324.385 377.888,325.300 377.513 C 325.965 377.240,326.000 370.058,326.000 234.613 L 326.000 92.000 298.658 92.000 L 271.317 92.000 270.238 91.000 C 269.644 90.450,268.809 90.000,268.381 90.000 C 267.168 90.000,264.460 87.306,264.014 85.657 C 263.798 84.856,263.256 83.973,262.810 83.697 C 262.008 83.198,262.000 82.888,262.000 53.077 C 262.000 30.186,261.885 22.845,261.520 22.480 C 261.002 21.962,77.813 21.835,75.400 22.351 M284.800 54.124 C 284.800 64.994,284.904 67.590,285.367 68.224 C 286.267 69.456,311.084 69.678,310.426 68.448 C 310.192 68.010,310.000 67.367,310.000 67.018 C 310.000 66.669,308.785 65.152,307.300 63.646 C 305.815 62.141,303.430 59.611,302.000 58.025 C 300.570 56.439,298.860 54.562,298.200 53.855 C 297.540 53.148,295.560 50.970,293.800 49.016 C 292.040 47.061,290.128 44.998,289.550 44.431 C 288.973 43.864,288.291 42.995,288.036 42.500 C 287.781 42.005,287.229 41.600,286.810 41.600 C 286.390 41.600,285.936 41.420,285.800 41.200 C 284.955 39.832,284.800 41.830,284.800 54.124 M285.618 108.839 C 286.158 109.191,287.276 109.700,288.103 109.971 C 288.930 110.242,289.813 110.851,290.067 111.324 C 290.320 111.798,290.925 112.497,291.410 112.880 C 293.368 114.419,293.021 120.326,290.854 122.350 C 290.164 122.994,289.600 123.701,289.600 123.921 C 289.600 125.402,289.916 125.396,198.400 125.512 C 104.411 125.630,105.540 125.652,103.504 123.717 C 102.024 122.311,99.910 117.757,100.214 116.632 C 101.254 112.790,102.912 110.860,106.400 109.434 L 109.800 108.045 197.218 108.122 C 276.554 108.193,284.726 108.259,285.618 108.839 M285.527 161.174 C 290.516 161.752,293.123 165.308,292.521 170.716 C 292.353 172.234,292.038 173.027,291.407 173.523 C 290.923 173.904,290.316 174.610,290.057 175.093 C 289.777 175.618,288.904 176.159,287.893 176.436 C 286.962 176.692,285.570 177.193,284.800 177.550 C 282.625 178.560,109.629 178.547,107.800 177.538 C 107.140 177.173,105.790 176.588,104.800 176.238 C 102.967 175.589,100.847 172.536,100.186 169.594 C 99.542 166.724,103.418 161.770,106.747 161.207 C 109.272 160.781,281.854 160.749,285.527 161.174 M287.802 211.678 C 294.466 215.940,294.369 223.423,287.600 227.237 C 286.324 227.956,109.406 228.302,106.765 227.590 C 105.910 227.360,104.743 226.738,104.171 226.208 C 103.598 225.677,102.996 225.189,102.833 225.122 C 101.035 224.385,99.713 218.367,101.004 216.800 C 101.276 216.470,101.713 215.534,101.974 214.719 C 102.271 213.796,102.779 213.135,103.325 212.965 C 103.806 212.815,104.791 212.176,105.514 211.546 L 106.828 210.400 196.316 210.400 L 285.805 210.400 287.802 211.678 M286.929 262.145 C 294.370 265.253,294.522 274.454,287.200 278.454 C 286.134 279.036,114.024 279.545,108.446 278.982 C 106.571 278.793,105.667 278.492,105.046 277.849 C 104.581 277.368,103.721 276.671,103.135 276.300 C 102.546 275.928,101.953 275.097,101.809 274.441 C 101.666 273.789,101.290 273.041,100.974 272.779 C 100.134 272.081,100.258 269.061,101.200 267.304 C 101.640 266.484,102.000 265.575,102.000 265.286 C 102.000 264.996,102.620 264.500,103.378 264.183 C 104.136 263.867,104.901 263.365,105.078 263.068 C 105.255 262.772,105.760 262.325,106.200 262.077 C 107.491 261.347,285.180 261.414,286.929 262.145 " stroke="none" fill="#fbfbfb" fill-rule="evenodd"></path><path id="path2" d="M70.800 0.783 C 70.800 1.403,70.238 1.735,68.100 2.377 C 63.644 3.715,58.553 7.796,56.596 11.600 C 56.200 12.370,55.553 13.450,55.159 14.000 C 54.764 14.550,53.982 17.069,53.421 19.597 L 52.400 24.195 52.400 200.000 L 52.400 375.805 53.421 380.403 C 53.982 382.931,54.764 385.450,55.159 386.000 C 55.553 386.550,56.200 387.630,56.596 388.400 C 58.553 392.204,63.644 396.285,68.100 397.623 C 70.238 398.265,70.800 398.597,70.800 399.217 C 70.800 399.820,71.075 400.000,72.000 400.000 C 74.994 400.000,72.450 397.691,68.498 396.820 C 67.234 396.542,65.881 396.032,65.491 395.687 C 65.102 395.342,64.009 394.597,63.064 394.030 C 60.844 392.699,57.868 389.443,56.803 387.180 C 56.342 386.201,55.683 384.883,55.338 384.252 C 53.593 381.060,53.625 384.530,53.625 200.000 C 53.625 15.470,53.593 18.940,55.338 15.748 C 55.683 15.117,56.342 13.799,56.803 12.820 C 57.868 10.557,60.844 7.301,63.064 5.970 C 64.009 5.403,65.102 4.658,65.491 4.313 C 65.881 3.968,67.234 3.458,68.498 3.180 C 72.450 2.309,74.994 0.000,72.000 0.000 C 71.075 0.000,70.800 0.180,70.800 0.783 M278.000 0.971 C 278.000 1.933,278.920 3.200,279.618 3.200 C 279.817 3.200,280.252 3.727,280.585 4.372 C 280.919 5.016,281.554 5.658,281.997 5.799 C 282.441 5.940,283.028 6.484,283.303 7.009 C 283.865 8.081,286.891 11.600,290.855 15.792 C 292.316 17.336,294.481 19.680,295.667 21.000 C 296.853 22.320,298.898 24.551,300.212 25.958 C 301.525 27.365,303.277 29.255,304.104 30.158 C 304.931 31.061,305.795 31.980,306.024 32.200 C 306.253 32.420,306.746 32.940,307.120 33.356 C 307.494 33.772,309.645 35.985,311.900 38.273 C 314.155 40.562,316.000 42.570,316.000 42.734 C 316.000 43.263,319.392 46.800,319.899 46.800 C 320.169 46.800,320.636 47.385,320.937 48.100 C 321.239 48.815,322.390 50.242,323.495 51.272 C 324.601 52.301,325.927 53.741,326.442 54.472 C 326.957 55.202,328.374 56.802,329.589 58.027 C 330.805 59.252,333.150 61.702,334.800 63.473 C 336.450 65.243,338.038 66.941,338.329 67.246 C 338.980 67.929,342.156 71.216,343.873 72.984 C 344.573 73.705,345.428 74.970,345.773 75.796 C 346.339 77.151,346.400 91.831,346.396 225.949 C 346.392 387.606,346.469 381.882,344.273 385.131 C 343.727 385.939,343.154 387.023,343.001 387.539 C 342.585 388.935,338.935 392.851,336.951 394.030 C 335.998 394.597,334.898 395.342,334.509 395.687 C 334.119 396.032,332.766 396.542,331.502 396.820 C 327.550 397.691,325.006 400.000,328.000 400.000 C 328.925 400.000,329.200 399.820,329.200 399.217 C 329.200 398.597,329.762 398.265,331.900 397.623 C 336.356 396.285,341.447 392.204,343.404 388.400 C 343.800 387.630,344.454 386.550,344.857 386.000 C 345.261 385.450,346.043 382.948,346.595 380.439 L 347.600 375.879 347.600 226.487 L 347.600 77.094 346.735 75.647 C 345.799 74.080,345.184 73.355,340.923 68.800 C 339.379 67.150,336.937 64.540,335.497 63.000 C 334.056 61.460,331.492 58.670,329.799 56.800 C 328.106 54.930,325.464 52.050,323.928 50.400 C 322.391 48.750,320.114 46.269,318.867 44.886 C 317.620 43.503,315.880 41.590,315.000 40.634 C 310.987 36.276,305.152 29.980,302.569 27.223 C 301.012 25.560,298.386 22.670,296.734 20.800 C 295.082 18.930,292.755 16.387,291.565 15.148 C 290.374 13.910,288.230 11.578,286.800 9.967 C 285.370 8.357,282.985 5.819,281.500 4.328 C 279.952 2.773,278.800 1.272,278.800 0.808 C 278.800 0.364,278.620 0.000,278.400 0.000 C 278.180 0.000,278.000 0.437,278.000 0.971 M74.800 20.264 C 73.810 20.830,72.868 21.498,72.706 21.747 C 72.322 22.339,72.322 377.660,72.706 378.255 C 72.868 378.505,73.845 379.180,74.877 379.755 L 76.754 380.800 200.000 380.800 L 323.246 380.800 325.123 379.755 C 326.155 379.180,327.132 378.505,327.294 378.255 C 327.456 378.005,327.591 313.249,327.594 234.354 L 327.600 90.908 326.771 89.854 L 325.942 88.800 298.431 88.800 C 271.525 88.800,268.400 88.670,268.400 87.547 C 268.400 87.341,267.783 86.809,267.028 86.364 C 264.821 85.061,264.800 84.742,264.800 51.740 L 264.800 21.920 263.440 20.560 L 262.080 19.200 169.340 19.217 L 76.600 19.234 74.800 20.264 M262.300 21.196 C 263.015 21.632,263.607 22.216,263.615 22.494 C 263.624 22.772,263.617 35.832,263.600 51.516 C 263.567 83.401,263.612 84.027,266.144 86.750 C 269.094 89.923,267.621 89.776,298.600 90.000 L 326.200 90.200 326.677 91.600 C 327.418 93.771,327.386 376.722,326.645 377.697 C 325.123 379.703,331.969 379.600,200.000 379.600 C 68.031 379.600,74.877 379.703,73.355 377.697 C 72.564 376.655,72.567 23.340,73.358 22.298 C 74.814 20.380,70.789 20.458,169.000 20.430 C 260.035 20.403,261.014 20.411,262.300 21.196 M283.456 37.710 C 282.752 38.225,282.715 39.077,282.763 53.827 L 282.814 69.400 283.829 70.300 C 284.865 71.218,311.748 71.764,313.034 70.894 C 314.580 69.848,314.341 67.778,312.538 66.596 C 312.022 66.258,311.600 65.760,311.600 65.489 C 311.600 65.219,310.565 63.922,309.300 62.608 C 308.035 61.294,306.623 59.723,306.163 59.117 C 305.424 58.145,296.727 48.821,293.966 46.041 C 293.397 45.468,291.989 43.920,290.836 42.600 C 289.683 41.280,288.444 40.094,288.083 39.964 C 287.721 39.834,287.136 39.204,286.783 38.564 C 286.056 37.246,284.601 36.872,283.456 37.710 M287.291 40.136 C 288.451 41.311,290.300 43.254,291.400 44.454 C 292.500 45.654,295.982 49.417,299.139 52.818 C 308.099 62.471,310.572 65.217,310.954 65.935 C 311.148 66.301,311.773 67.102,312.342 67.715 C 313.166 68.601,313.289 68.969,312.945 69.515 C 312.318 70.510,286.026 70.771,284.538 69.796 L 283.600 69.182 283.600 54.219 C 283.600 41.151,283.680 39.178,284.229 38.629 C 285.064 37.793,284.897 37.711,287.291 40.136 M105.539 111.207 C 103.035 112.530,102.107 114.830,102.330 119.157 C 102.384 120.198,102.853 120.967,104.343 122.457 L 106.286 124.400 195.843 124.398 C 294.005 124.395,287.457 124.581,289.526 121.739 C 292.700 117.377,291.382 112.066,286.810 110.796 C 283.686 109.928,107.202 110.328,105.539 111.207 M286.532 111.462 C 287.577 111.635,288.166 111.983,288.387 112.557 C 288.566 113.021,289.181 113.904,289.756 114.521 C 291.484 116.376,289.573 122.206,286.887 123.271 C 286.509 123.421,245.766 123.556,196.347 123.572 L 106.494 123.600 104.847 121.953 C 101.899 119.005,102.596 113.779,106.217 111.679 C 107.067 111.186,283.576 110.973,286.532 111.462 M106.200 162.385 C 101.093 164.521,100.838 172.776,105.800 175.365 L 107.400 176.200 194.200 176.315 C 291.979 176.445,286.893 176.585,289.478 173.684 C 292.847 169.903,291.192 163.724,286.458 162.409 C 284.660 161.910,107.393 161.886,106.200 162.385 M286.640 163.222 C 289.645 164.316,291.503 169.309,289.765 171.622 C 289.196 172.380,288.581 173.379,288.397 173.843 C 287.857 175.207,288.928 175.191,195.700 175.196 L 106.400 175.200 104.800 173.600 C 102.348 171.148,102.370 166.924,104.847 164.447 L 106.494 162.800 195.987 162.800 C 257.770 162.800,285.840 162.931,286.640 163.222 M105.743 213.163 C 100.905 215.452,100.745 221.961,105.450 225.086 L 107.731 226.600 195.513 226.703 C 251.941 226.769,283.815 226.665,284.751 226.413 C 292.362 224.364,293.744 216.194,287.028 212.954 L 285.050 212.000 196.625 212.000 L 108.200 212.001 105.743 213.163 M286.253 213.655 C 287.670 214.012,288.265 214.436,289.013 215.621 C 289.538 216.453,290.155 217.249,290.384 217.390 C 292.292 218.569,289.649 223.188,286.122 224.837 L 283.633 226.000 196.474 226.000 L 109.314 226.000 106.557 224.567 C 103.487 222.971,103.280 222.619,103.280 219.000 C 103.280 214.788,103.334 214.717,107.400 213.609 C 109.377 213.070,284.109 213.115,286.253 213.655 M105.600 264.320 C 100.894 266.689,100.782 273.333,105.400 276.171 L 107.400 277.400 195.874 277.504 C 296.748 277.622,286.652 277.993,289.900 274.039 C 292.795 270.516,291.603 266.361,287.071 264.175 L 285.050 263.200 196.425 263.207 L 107.800 263.213 105.600 264.320 M286.154 264.869 C 287.952 265.381,289.200 266.254,289.200 267.000 C 289.200 267.262,289.560 267.802,290.000 268.200 C 290.960 269.069,291.126 271.900,290.237 272.241 C 289.927 272.360,289.452 272.991,289.182 273.644 C 287.968 276.575,292.089 276.459,194.400 276.322 L 107.400 276.200 105.557 275.339 C 103.430 274.345,103.213 273.831,103.205 269.776 C 103.199 266.329,103.562 265.791,106.400 265.037 C 109.340 264.256,283.431 264.093,286.154 264.869 " stroke="none" fill="#747474" fill-rule="evenodd"></path><path id="path3" d="M67.098 0.746 C 66.973 1.225,66.386 1.589,65.456 1.763 C 64.630 1.918,63.224 2.714,62.180 3.617 C 61.174 4.488,60.192 5.200,59.998 5.200 C 59.804 5.200,59.326 5.740,58.936 6.401 C 58.546 7.061,57.925 7.697,57.556 7.814 C 57.188 7.931,56.671 8.546,56.408 9.180 C 56.145 9.815,55.414 10.912,54.783 11.619 C 54.053 12.436,53.467 13.713,53.175 15.122 C 52.921 16.342,52.329 18.073,51.857 18.970 L 51.000 20.600 51.000 200.000 L 51.000 379.400 51.857 381.030 C 52.329 381.927,52.921 383.658,53.175 384.878 C 53.467 386.287,54.053 387.564,54.783 388.381 C 55.414 389.088,56.145 390.185,56.408 390.820 C 56.671 391.454,57.188 392.069,57.556 392.186 C 57.925 392.303,58.546 392.939,58.936 393.599 C 59.326 394.260,59.804 394.800,59.998 394.800 C 60.192 394.800,61.174 395.512,62.180 396.383 C 63.224 397.286,64.630 398.082,65.456 398.237 C 66.386 398.411,66.973 398.775,67.098 399.254 C 67.379 400.328,70.000 400.327,70.000 399.253 C 70.000 398.682,69.440 398.348,67.625 397.839 C 60.899 395.952,55.330 389.416,53.155 380.857 L 52.000 376.315 52.000 200.000 L 52.000 23.685 53.155 19.143 C 55.330 10.584,60.899 4.048,67.625 2.161 C 69.440 1.652,70.000 1.318,70.000 0.747 C 70.000 -0.327,67.379 -0.328,67.098 0.746 M278.800 0.563 C 278.800 0.872,280.105 2.463,281.700 4.098 C 283.295 5.732,286.130 8.745,288.000 10.794 C 289.870 12.842,292.503 15.706,293.850 17.159 C 295.198 18.612,298.505 22.230,301.199 25.200 C 303.894 28.170,307.831 32.465,309.949 34.745 C 316.070 41.334,316.460 41.757,319.200 44.790 C 322.091 47.990,325.770 51.961,329.796 56.229 C 331.264 57.784,332.620 59.309,332.810 59.616 C 333.000 59.923,334.357 61.440,335.827 62.987 C 344.779 72.413,346.111 73.903,347.143 75.647 L 348.000 77.094 348.000 226.722 L 348.000 376.349 346.852 380.875 C 344.691 389.396,339.094 395.954,332.375 397.839 C 330.560 398.348,330.000 398.682,330.000 399.253 C 330.000 400.327,332.621 400.328,332.902 399.254 C 333.027 398.775,333.614 398.411,334.544 398.237 C 335.370 398.082,336.776 397.286,337.820 396.383 C 338.826 395.512,339.808 394.800,340.002 394.800 C 340.196 394.800,340.674 394.260,341.064 393.599 C 341.454 392.939,342.075 392.303,342.444 392.186 C 342.812 392.069,343.329 391.454,343.592 390.820 C 343.855 390.185,344.580 389.094,345.204 388.396 C 345.841 387.682,346.554 386.221,346.831 385.063 C 347.101 383.928,347.700 382.280,348.161 381.400 L 349.000 379.800 349.000 227.789 L 349.000 75.779 347.465 73.905 C 346.620 72.875,345.603 71.928,345.204 71.801 C 344.806 71.675,344.372 71.143,344.241 70.620 C 344.110 70.097,342.950 68.708,341.663 67.535 C 340.377 66.361,338.981 64.860,338.562 64.200 C 338.143 63.540,336.630 61.816,335.200 60.368 C 333.770 58.920,332.357 57.480,332.061 57.168 C 331.764 56.856,330.641 55.700,329.565 54.600 C 328.489 53.500,327.501 52.275,327.370 51.877 C 327.239 51.479,326.694 50.988,326.159 50.784 C 325.623 50.581,325.019 49.977,324.816 49.441 C 324.612 48.906,324.060 48.346,323.589 48.196 C 323.118 48.047,322.558 47.426,322.346 46.817 C 322.134 46.208,321.528 45.513,320.999 45.272 C 320.471 45.032,319.755 44.287,319.409 43.617 C 319.063 42.948,318.516 42.400,318.195 42.400 C 317.874 42.400,317.355 41.787,317.042 41.039 C 316.729 40.290,316.097 39.558,315.637 39.412 C 315.176 39.266,314.800 38.960,314.800 38.734 C 314.800 38.507,314.296 37.844,313.679 37.260 C 313.063 36.677,310.318 33.681,307.579 30.602 C 304.841 27.523,301.482 23.833,300.115 22.402 C 298.748 20.971,296.993 19.133,296.215 18.318 C 295.437 17.503,294.800 16.677,294.800 16.482 C 294.800 16.288,294.346 15.922,293.792 15.669 C 293.238 15.417,292.616 14.769,292.411 14.229 C 292.206 13.690,291.661 13.047,291.200 12.800 C 290.739 12.553,290.194 11.909,289.988 11.369 C 289.783 10.828,289.177 10.219,288.641 10.016 C 288.106 9.812,287.552 9.280,287.411 8.833 C 287.269 8.386,286.757 7.701,286.274 7.310 C 285.791 6.920,285.078 6.105,284.689 5.500 C 284.300 4.895,283.733 4.400,283.430 4.400 C 283.127 4.400,282.507 3.770,282.053 3.000 C 281.599 2.230,281.041 1.600,280.813 1.600 C 280.586 1.600,280.400 1.240,280.400 0.800 C 280.400 0.267,280.133 0.000,279.600 0.000 C 279.160 0.000,278.800 0.253,278.800 0.563 M75.600 21.261 C 74.830 21.475,73.975 21.944,73.700 22.302 C 72.965 23.260,72.965 376.744,73.700 377.692 C 74.868 379.198,74.630 379.196,200.000 379.196 C 325.370 379.196,325.132 379.198,326.300 377.692 C 327.030 376.751,327.024 92.640,326.294 91.278 L 325.800 90.356 298.724 90.384 L 271.647 90.411 269.524 89.455 C 263.095 86.564,263.183 87.085,263.212 51.800 L 263.236 22.600 262.196 21.700 L 261.155 20.800 169.078 20.836 C 110.744 20.859,76.487 21.015,75.600 21.261 M261.520 22.480 C 261.885 22.845,262.000 30.186,262.000 53.077 C 262.000 82.888,262.008 83.198,262.810 83.697 C 263.256 83.973,263.798 84.856,264.014 85.657 C 264.460 87.306,267.168 90.000,268.381 90.000 C 268.809 90.000,269.644 90.450,270.238 91.000 L 271.317 92.000 298.658 92.000 L 326.000 92.000 326.000 234.613 C 326.000 370.058,325.965 377.240,325.300 377.513 C 324.385 377.888,75.615 377.888,74.700 377.512 C 74.034 377.239,74.004 368.503,74.100 199.916 L 74.200 22.608 75.400 22.351 C 77.813 21.835,261.002 21.962,261.520 22.480 M284.488 38.872 C 283.541 39.819,283.813 69.072,284.774 69.586 C 285.263 69.848,290.487 70.000,298.986 70.000 C 313.825 70.000,314.059 69.957,311.852 67.654 C 311.273 67.050,310.800 66.372,310.800 66.148 C 310.800 65.923,310.329 65.303,309.753 64.770 C 309.177 64.236,306.537 61.370,303.886 58.400 C 301.235 55.430,298.601 52.540,298.033 51.979 C 297.465 51.417,295.200 48.999,293.000 46.604 C 290.800 44.210,288.550 41.821,288.000 41.296 C 287.450 40.770,286.545 39.900,285.988 39.362 C 285.192 38.592,284.872 38.488,284.488 38.872 M285.800 41.200 C 285.936 41.420,286.390 41.600,286.810 41.600 C 287.229 41.600,287.781 42.005,288.036 42.500 C 288.291 42.995,288.973 43.864,289.550 44.431 C 290.128 44.998,292.040 47.061,293.800 49.016 C 295.560 50.970,297.540 53.148,298.200 53.855 C 298.860 54.562,300.570 56.439,302.000 58.025 C 303.430 59.611,305.815 62.141,307.300 63.646 C 308.785 65.152,310.000 66.669,310.000 67.018 C 310.000 67.367,310.192 68.010,310.426 68.448 C 311.084 69.678,286.267 69.456,285.367 68.224 C 284.904 67.590,284.800 64.994,284.800 54.124 C 284.800 41.830,284.955 39.832,285.800 41.200 M106.400 109.434 C 102.912 110.860,101.254 112.790,100.214 116.632 C 99.910 117.757,102.024 122.311,103.504 123.717 C 105.540 125.652,104.411 125.630,198.400 125.512 C 289.916 125.396,289.600 125.402,289.600 123.921 C 289.600 123.701,290.164 122.994,290.854 122.350 C 293.021 120.326,293.368 114.419,291.410 112.880 C 290.925 112.497,290.320 111.798,290.067 111.324 C 289.813 110.851,288.930 110.242,288.103 109.971 C 287.276 109.700,286.158 109.191,285.618 108.839 C 284.726 108.259,276.554 108.193,197.218 108.122 L 109.800 108.045 106.400 109.434 M286.594 110.440 C 292.632 111.961,293.298 120.975,287.600 124.059 C 286.547 124.629,111.560 125.142,107.658 124.586 C 100.437 123.558,99.752 112.511,106.777 110.379 C 108.472 109.865,284.546 109.924,286.594 110.440 M106.747 161.207 C 103.418 161.770,99.542 166.724,100.186 169.594 C 100.847 172.536,102.967 175.589,104.800 176.238 C 105.790 176.588,107.140 177.173,107.800 177.538 C 109.629 178.547,282.625 178.560,284.800 177.550 C 285.570 177.193,286.962 176.692,287.893 176.436 C 288.904 176.159,289.777 175.618,290.057 175.093 C 290.316 174.610,290.923 173.904,291.407 173.523 C 292.038 173.027,292.353 172.234,292.521 170.716 C 293.123 165.308,290.516 161.752,285.527 161.174 C 281.854 160.749,109.272 160.781,106.747 161.207 M285.400 161.989 C 291.217 162.920,293.641 169.358,289.827 173.748 C 287.031 176.968,293.547 176.756,196.800 176.776 C 109.640 176.794,107.582 176.761,105.042 175.277 C 100.013 172.339,101.237 163.325,106.845 162.002 C 108.835 161.532,282.469 161.520,285.400 161.989 M105.514 211.546 C 104.791 212.176,103.806 212.815,103.325 212.965 C 102.779 213.135,102.271 213.796,101.974 214.719 C 101.713 215.534,101.276 216.470,101.004 216.800 C 99.713 218.367,101.035 224.385,102.833 225.122 C 102.996 225.189,103.598 225.677,104.171 226.208 C 104.743 226.738,105.910 227.360,106.765 227.590 C 109.406 228.302,286.324 227.956,287.600 227.237 C 294.369 223.423,294.466 215.940,287.802 211.678 L 285.805 210.400 196.316 210.400 L 106.828 210.400 105.514 211.546 M286.961 212.565 C 294.137 215.963,292.680 225.045,284.680 226.783 C 282.026 227.360,109.995 227.361,107.919 226.784 C 103.805 225.642,101.385 222.080,102.024 218.110 C 102.559 214.784,102.996 214.118,105.485 212.833 L 107.800 211.638 196.361 211.619 L 284.923 211.600 286.961 212.565 M106.200 262.077 C 105.760 262.325,105.255 262.772,105.078 263.068 C 104.901 263.365,104.136 263.867,103.378 264.183 C 102.620 264.500,102.000 264.996,102.000 265.286 C 102.000 265.575,101.640 266.484,101.200 267.304 C 100.258 269.061,100.134 272.081,100.974 272.779 C 101.290 273.041,101.666 273.789,101.809 274.441 C 101.953 275.097,102.546 275.928,103.135 276.300 C 103.721 276.671,104.581 277.368,105.046 277.849 C 105.667 278.492,106.571 278.793,108.446 278.982 C 114.024 279.545,286.134 279.036,287.200 278.454 C 294.522 274.454,294.370 265.253,286.929 262.145 C 285.180 261.414,107.491 261.347,106.200 262.077 M287.166 263.783 C 293.354 266.918,293.038 274.104,286.583 277.059 L 284.509 278.009 195.754 277.904 L 107.000 277.800 105.400 276.710 C 102.228 274.548,101.651 273.100,102.126 268.495 C 102.383 266.009,102.676 265.611,105.451 263.983 L 107.400 262.840 196.313 262.820 L 285.227 262.800 287.166 263.783 " stroke="none" fill="#a4a4a4" fill-rule="evenodd"></path><path id="path4" d="M70.000 0.768 C 70.000 1.301,69.623 1.619,68.771 1.806 C 68.096 1.955,67.634 2.167,67.745 2.278 C 68.240 2.773,70.800 1.508,70.800 0.769 C 70.800 0.346,70.620 0.000,70.400 0.000 C 70.180 0.000,70.000 0.346,70.000 0.768 M278.800 1.522 C 278.800 1.702,279.340 2.249,280.000 2.737 C 280.660 3.225,281.200 3.558,281.200 3.478 C 281.200 3.398,280.660 2.851,280.000 2.263 C 279.340 1.675,278.800 1.341,278.800 1.522 M65.000 3.077 C 60.744 5.365,53.998 13.090,54.001 15.672 C 54.001 15.962,54.316 15.630,54.701 14.934 C 55.085 14.238,55.830 12.888,56.357 11.934 C 58.261 8.481,62.582 4.528,66.147 2.976 C 66.836 2.677,67.130 2.431,66.800 2.432 C 66.470 2.432,65.660 2.722,65.000 3.077 M282.408 5.267 C 283.182 6.000,284.425 7.230,285.170 8.000 C 286.087 8.948,285.970 8.726,284.809 7.311 C 283.865 6.162,282.622 4.932,282.047 4.578 C 281.251 4.088,281.338 4.254,282.408 5.267 M287.687 11.032 C 288.505 11.894,290.199 13.680,291.452 15.000 C 292.705 16.320,295.078 18.930,296.726 20.800 C 298.373 22.670,300.929 25.460,302.404 27.000 C 303.879 28.540,305.382 30.245,305.743 30.789 C 306.104 31.333,306.400 31.573,306.400 31.322 C 306.400 30.929,302.803 26.866,294.600 17.991 C 293.500 16.801,291.699 14.802,290.599 13.549 C 289.498 12.296,288.058 10.864,287.399 10.367 C 286.368 9.591,286.409 9.684,287.687 11.032 M52.691 20.938 C 51.553 25.209,51.631 375.340,52.771 379.200 C 53.674 382.257,53.860 381.605,53.000 378.400 C 52.079 374.968,52.099 25.077,53.021 21.520 C 53.362 20.202,53.583 18.949,53.512 18.735 C 53.440 18.521,53.071 19.512,52.691 20.938 M76.315 20.728 C 75.938 20.878,117.371 20.953,168.389 20.897 L 261.148 20.793 262.192 21.697 L 263.236 22.600 263.232 52.000 C 263.229 77.153,263.314 81.573,263.820 82.600 C 264.146 83.260,264.274 83.440,264.106 83.000 C 263.938 82.560,263.759 68.880,263.709 52.600 C 263.659 36.320,263.614 22.772,263.609 22.494 C 263.604 22.216,263.015 21.632,262.300 21.196 C 260.979 20.390,78.324 19.931,76.315 20.728 M73.067 22.667 C 72.696 23.037,72.729 377.109,73.100 377.338 C 73.265 377.440,73.400 297.621,73.400 199.962 C 73.400 102.303,73.385 22.400,73.367 22.400 C 73.348 22.400,73.213 22.520,73.067 22.667 M307.800 32.785 C 308.240 33.343,309.143 34.340,309.806 35.000 C 310.470 35.660,311.800 37.100,312.762 38.200 C 313.724 39.300,314.316 39.840,314.077 39.400 C 313.838 38.960,312.149 37.063,310.322 35.185 C 308.495 33.307,307.360 32.227,307.800 32.785 M284.229 38.629 C 283.680 39.178,283.600 41.151,283.600 54.219 L 283.600 69.182 284.538 69.796 C 285.343 70.324,287.387 70.396,298.995 70.305 C 314.409 70.185,314.485 70.169,312.074 67.424 C 311.373 66.625,310.800 66.104,310.800 66.264 C 310.800 66.425,311.273 67.050,311.852 67.654 C 314.059 69.957,313.825 70.000,298.986 70.000 C 290.487 70.000,285.263 69.848,284.774 69.586 C 284.030 69.188,284.000 68.593,284.000 54.235 C 284.000 38.179,284.131 37.126,285.859 39.304 C 286.267 39.817,286.857 40.394,287.171 40.586 C 287.485 40.778,287.215 40.274,286.571 39.467 C 285.246 37.807,285.102 37.755,284.229 38.629 M288.696 41.800 C 289.150 42.460,290.029 43.450,290.650 44.000 C 291.399 44.664,291.259 44.396,290.232 43.200 C 288.136 40.757,287.715 40.374,288.696 41.800 M316.400 42.119 C 316.400 42.236,317.245 43.203,318.278 44.266 C 319.310 45.330,319.808 45.750,319.385 45.200 C 318.365 43.877,316.400 41.849,316.400 42.119 M321.044 47.000 C 321.418 47.660,322.852 49.370,324.232 50.800 C 325.612 52.230,328.126 54.930,329.817 56.800 C 334.492 61.968,338.455 66.051,338.036 65.267 C 337.830 64.882,336.792 63.752,335.730 62.757 C 334.669 61.762,333.327 60.330,332.749 59.574 C 332.170 58.818,330.665 57.120,329.405 55.800 C 324.984 51.172,321.793 47.705,321.082 46.757 C 320.381 45.821,320.380 45.827,321.044 47.000 M293.667 47.088 C 293.992 47.576,296.061 49.916,298.265 52.288 C 300.469 54.660,303.718 58.220,305.486 60.200 C 307.254 62.180,309.213 64.250,309.839 64.800 C 310.491 65.373,310.298 65.043,309.389 64.029 C 308.515 63.055,307.080 61.452,306.200 60.466 C 304.334 58.377,294.069 47.189,293.478 46.600 C 293.257 46.380,293.343 46.600,293.667 47.088 M339.888 67.772 C 340.817 68.581,342.122 69.904,342.788 70.712 C 343.455 71.521,344.000 72.040,344.000 71.867 C 344.000 71.388,339.931 67.189,339.009 66.717 C 338.564 66.489,338.960 66.964,339.888 67.772 M344.669 72.993 C 345.135 73.320,345.986 74.388,346.560 75.368 L 347.604 77.150 347.484 227.475 C 347.418 310.154,347.241 378.340,347.091 379.000 C 346.939 379.667,347.067 379.490,347.378 378.600 C 347.854 377.240,347.943 354.501,347.969 227.047 L 348.000 77.094 347.135 75.647 C 346.037 73.809,344.781 72.400,344.241 72.400 C 344.011 72.400,344.203 72.667,344.669 72.993 M266.001 86.950 C 266.770 87.803,268.350 88.928,269.511 89.450 L 271.623 90.400 298.511 90.306 L 325.400 90.211 298.200 90.006 C 267.808 89.776,269.508 89.942,266.201 86.880 L 264.601 85.400 266.001 86.950 M326.800 235.080 C 326.690 313.444,326.735 377.425,326.901 377.259 C 327.066 377.094,327.156 312.978,327.101 234.779 L 327.000 92.600 326.800 235.080 M152.132 110.300 C 176.735 110.357,216.875 110.357,241.332 110.300 C 265.789 110.243,245.660 110.196,196.600 110.196 C 147.540 110.196,127.529 110.243,152.132 110.300 M104.958 111.160 C 102.629 112.581,101.334 115.903,101.970 118.831 C 102.209 119.934,102.270 119.680,102.284 117.528 C 102.303 114.329,103.302 112.389,105.539 111.207 C 106.343 110.783,106.820 110.428,106.600 110.419 C 106.380 110.410,105.641 110.744,104.958 111.160 M289.439 112.700 C 290.403 113.745,291.214 114.960,291.242 115.400 C 291.284 116.068,291.323 116.085,291.475 115.505 C 291.648 114.844,288.645 110.800,287.981 110.800 C 287.819 110.800,288.475 111.655,289.439 112.700 M291.200 118.944 C 291.200 119.243,290.572 120.278,289.804 121.244 C 289.036 122.210,288.406 123.153,288.404 123.340 C 288.402 123.527,289.120 122.722,290.000 121.551 C 291.423 119.657,291.982 118.400,291.400 118.400 C 291.290 118.400,291.200 118.645,291.200 118.944 M102.400 120.652 C 102.400 120.864,103.165 121.749,104.100 122.619 L 105.800 124.200 104.200 122.406 C 103.320 121.420,102.555 120.535,102.500 120.439 C 102.445 120.344,102.400 120.440,102.400 120.652 M151.900 124.700 C 176.375 124.757,216.425 124.757,240.900 124.700 C 265.375 124.643,245.350 124.596,196.400 124.596 C 147.450 124.596,127.425 124.643,151.900 124.700 M151.900 161.900 C 176.155 161.957,215.845 161.957,240.100 161.900 C 264.355 161.843,244.510 161.796,196.000 161.796 C 147.490 161.796,127.645 161.843,151.900 161.900 M103.651 164.191 C 102.736 165.183,101.998 166.387,101.995 166.891 C 101.992 167.391,101.898 168.250,101.786 168.800 C 101.610 169.672,101.632 169.697,101.964 169.000 C 102.173 168.560,102.356 167.701,102.372 167.091 C 102.390 166.373,102.982 165.351,104.051 164.191 C 104.959 163.206,105.612 162.400,105.502 162.400 C 105.392 162.400,104.559 163.206,103.651 164.191 M288.911 164.100 C 289.784 165.035,290.740 166.340,291.034 167.000 C 291.332 167.669,291.576 167.906,291.584 167.537 C 291.601 166.842,288.189 162.400,287.639 162.400 C 287.465 162.400,288.038 163.165,288.911 164.100 M102.032 170.841 C 101.994 172.076,103.398 174.262,104.800 175.154 C 105.437 175.559,105.266 175.275,104.327 174.373 C 103.517 173.594,102.737 172.427,102.592 171.779 C 102.177 169.914,102.065 169.727,102.032 170.841 M291.200 171.176 C 291.200 171.603,291.033 172.056,290.829 172.182 C 290.625 172.308,289.884 173.174,289.182 174.106 C 288.011 175.659,288.058 175.633,289.737 173.800 C 291.289 172.106,292.123 170.400,291.400 170.400 C 291.290 170.400,291.200 170.749,291.200 171.176 M196.600 176.400 L 110.200 176.603 196.200 176.678 C 243.500 176.720,282.920 176.605,283.800 176.423 C 285.008 176.173,285.106 176.105,284.200 176.145 C 283.540 176.174,244.120 176.288,196.600 176.400 M105.425 212.911 C 104.118 213.620,103.007 214.430,102.955 214.710 C 102.896 215.024,102.943 215.047,103.076 214.771 C 103.195 214.524,104.397 213.800,105.746 213.161 L 108.200 212.001 196.876 212.000 C 255.563 212.000,285.636 212.135,285.800 212.400 C 285.936 212.620,286.251 212.800,286.500 212.800 C 286.749 212.800,286.604 212.536,286.176 212.213 C 285.499 211.700,274.058 211.625,196.600 211.624 L 107.800 211.622 105.425 212.911 M287.233 212.921 C 287.325 212.988,287.940 213.358,288.600 213.745 L 289.800 214.447 288.856 213.624 C 288.336 213.171,287.721 212.800,287.489 212.800 C 287.257 212.800,287.142 212.854,287.233 212.921 M289.602 214.822 C 289.601 214.945,290.050 215.655,290.600 216.400 C 291.150 217.145,291.594 217.585,291.586 217.378 C 291.570 216.976,289.605 214.445,289.602 214.822 M290.478 222.346 C 289.450 223.984,287.588 225.395,285.313 226.261 C 283.809 226.833,283.808 226.835,285.119 226.625 C 287.428 226.253,292.441 221.880,291.546 221.018 C 291.466 220.941,290.985 221.538,290.478 222.346 M102.425 222.473 C 102.386 223.520,106.744 226.839,108.074 226.775 C 108.363 226.761,108.186 226.583,107.680 226.380 C 105.999 225.706,103.151 223.537,102.799 222.662 C 102.538 222.018,102.444 221.970,102.425 222.473 M152.532 227.100 C 176.695 227.157,216.115 227.157,240.132 227.100 C 264.149 227.043,244.380 226.996,196.200 226.996 C 148.020 226.996,128.369 227.043,152.532 227.100 M105.800 263.810 C 103.877 264.995,104.205 265.121,106.296 264.000 C 107.775 263.207,108.552 263.200,196.419 263.200 L 285.050 263.200 287.071 264.175 C 288.493 264.861,289.462 265.710,290.346 267.043 C 291.035 268.085,291.600 268.762,291.600 268.547 C 291.600 267.545,288.931 264.677,287.166 263.783 L 285.227 262.800 196.313 262.812 L 107.400 262.825 105.800 263.810 M103.021 265.577 C 102.634 266.004,102.412 266.589,102.527 266.877 C 102.689 267.280,102.744 267.269,102.768 266.831 C 102.786 266.519,103.098 265.934,103.462 265.531 C 103.826 265.129,104.034 264.800,103.924 264.800 C 103.814 264.800,103.408 265.150,103.021 265.577 M289.625 274.365 C 288.648 275.594,288.160 276.347,288.540 276.038 C 289.429 275.315,291.742 272.399,291.548 272.246 C 291.467 272.182,290.601 273.135,289.625 274.365 M102.406 273.630 C 102.399 274.378,103.225 275.228,105.400 276.710 L 107.000 277.800 195.600 277.910 C 287.249 278.024,288.932 277.999,287.486 276.552 C 287.396 276.463,286.667 276.663,285.866 276.998 C 284.574 277.538,274.392 277.595,195.904 277.504 L 107.400 277.400 105.400 276.168 C 104.300 275.491,103.178 274.501,102.906 273.968 C 102.596 273.360,102.410 273.234,102.406 273.630 M76.315 379.272 C 76.692 379.421,132.350 379.544,200.000 379.544 C 267.650 379.544,323.308 379.421,323.685 379.272 C 324.062 379.122,268.404 379.000,200.000 379.000 C 131.596 379.000,75.938 379.122,76.315 379.272 M54.001 384.328 C 53.997 387.584,63.803 397.677,66.880 397.584 C 67.166 397.576,66.836 397.323,66.147 397.024 C 62.582 395.472,58.261 391.519,56.357 388.066 C 55.830 387.112,55.085 385.762,54.701 385.066 C 54.316 384.370,54.001 384.038,54.001 384.328 M345.287 385.083 C 342.961 390.259,338.363 395.061,333.853 397.024 C 333.164 397.323,332.834 397.576,333.120 397.584 C 336.185 397.677,346.729 386.788,345.922 384.365 C 345.848 384.145,345.563 384.468,345.287 385.083 M68.700 398.099 C 69.550 398.371,70.000 398.773,70.000 399.258 C 70.000 399.666,70.180 400.000,70.400 400.000 C 70.620 400.000,70.800 399.658,70.800 399.239 C 70.800 398.522,68.974 397.536,67.840 397.641 C 67.598 397.663,67.985 397.869,68.700 398.099 M330.300 398.065 C 329.249 398.449,328.688 400.000,329.600 400.000 C 329.820 400.000,330.000 399.666,330.000 399.258 C 330.000 398.773,330.450 398.371,331.300 398.099 C 332.015 397.869,332.330 397.678,332.000 397.672 C 331.670 397.667,330.905 397.844,330.300 398.065 " stroke="none" fill="#7c7c7c" fill-rule="evenodd"></path></g></svg>